<svg id="Icons" xmlns="http://www.w3.org/2000/svg" viewBox="0 0 512 512"><defs><style>.cls-3{fill:#aacfe5}.cls-4{fill:#cde6f6}.cls-5{fill:#eef9ff}.cls-6{fill:#f39e22}.cls-7{fill:#f9c744}.cls-8{fill:#ebd9ea}.cls-9{fill:#fff}.cls-10{fill:#c2aacf}.cls-12{fill:#746087}.cls-13{fill:#fa4654}</style></defs><circle cx="256" cy="256" r="255.98" style="fill:#d7156f"/><path d="M373.71 28.66a255.64 255.64 0 0 0-229.89-2.75C16.74 87.87-36 241.11 25.9 368.18a254.78 254.78 0 0 0 97.75 107 77.72 77.72 0 0 1 12.67-9.47c24.06-14.37 56.53-18 71.64-41.58 10.38-16.19 9-37.36 3.47-55.78s-14.74-35.68-19.24-54.35a112.54 112.54 0 0 1 81.54-135.35c20.63-5.26 45.45-6.3 57.45-23.91 16.29-23.93-4.48-60 11.17-84.38 5.06-7.85 13.19-13.12 19.45-20a54.51 54.51 0 0 0 11.91-21.7z" style="fill:#b82065"/><path class="cls-3" d="M270.39 285.6v113.12A30.19 30.19 0 0 1 240.15 429H120.08a30.23 30.23 0 0 1-30.24-30.24V285.6a43.81 43.81 0 0 1 28.63-41.1l14.25-5.27a43.82 43.82 0 0 0 28.64-41.1V163h37.52v35.16a43.81 43.81 0 0 0 28.63 41.1l14.25 5.27a43.81 43.81 0 0 1 28.63 41.07z"/><path class="cls-4" d="M270.39 285.6v113.12a30.22 30.22 0 0 1-2.17 11.28 30.1 30.1 0 0 1-11.22 2.15H137a30.24 30.24 0 0 1-30.24-30.24v-84.56a43.85 43.85 0 0 1 28.63-41.11l14.22-5.24a43.82 43.82 0 0 0 28.62-41.1V163h20.65v35.16a43.81 43.81 0 0 0 28.63 41.1l14.25 5.27a43.81 43.81 0 0 1 28.63 41.07z"/><ellipse class="cls-5" cx="203.01" cy="242.6" rx="11.1" ry="19.01" transform="rotate(-45 203.005 242.593)"/><ellipse class="cls-5" cx="237.52" cy="259.61" rx="8.07" ry="13.82" transform="matrix(.3 -.95 .95 .3 -81.07 409)"/><path class="cls-6" d="M106.72 297.35h146.79v98.29a16.5 16.5 0 0 1-16.5 16.5H123.22a16.5 16.5 0 0 1-16.5-16.5v-98.29z"/><ellipse class="cls-7" cx="230.85" cy="331.3" rx="13.04" ry="23.01"/><ellipse class="cls-7" cx="230.85" cy="375.71" rx="8.13" ry="14.35"/><path class="cls-3" d="M212.12 151.7a11.27 11.27 0 0 1-11.27 11.3h-41.46a11.28 11.28 0 0 1-10.19-16.12 11.52 11.52 0 0 1 2.21-3.13 11.26 11.26 0 0 1 8-3.3h41.46a11.26 11.26 0 0 1 11.27 11.28z"/><path class="cls-4" d="M211 146.85a11.29 11.29 0 0 1-10.18 6.42h-41.43a11.31 11.31 0 0 1-10.19-6.42 11.52 11.52 0 0 1 2.21-3.13 11.26 11.26 0 0 1 8-3.3h41.46a11.27 11.27 0 0 1 10.13 6.43z"/><path class="cls-8" d="M198.88 120.53v19.89h-37.52v-19.89a8 8 0 0 1 8-8h21.54a8 8 0 0 1 7.98 8z"/><path class="cls-9" d="M198.88 120.53v14.09H187a8.71 8.71 0 0 1-8.72-8.71v-13.37h12.66a8 8 0 0 1 7.94 7.99z"/><path class="cls-10" d="M174.73 91.04h10.78v21.5h-10.78z"/><path class="cls-8" d="M192.73 50.46v36.37a8.29 8.29 0 0 1-3.41 6.68L185 96.68a8.25 8.25 0 0 1-9.72 0l-4.35-3.17a8.25 8.25 0 0 1-3.4-6.68V50.46a8.26 8.26 0 0 1 3.4-6.68l2.87-2.09 1.48-1.08a8.29 8.29 0 0 1 9.72 0l4.34 3.17a8.27 8.27 0 0 1 3.39 6.68z"/><path class="cls-9" d="M192.73 50.46v36.37a8.12 8.12 0 0 1-.61 3.1L190.64 91a8.25 8.25 0 0 1-9.72 0l-4.34-3.17a8.23 8.23 0 0 1-3.4-6.68V44.79a8.31 8.31 0 0 1 .6-3.1l1.48-1.08a8.29 8.29 0 0 1 9.72 0l4.34 3.17a8.27 8.27 0 0 1 3.41 6.68z"/><path d="M390.63 141.86a73.53 73.53 0 1 1-73.54-73.54 73.19 73.19 0 0 1 73.54 73.54z" style="fill:#a583bb"/><path class="cls-10" d="M390.63 141.86A73.19 73.19 0 0 1 374.32 188a73.53 73.53 0 0 1-103.4-103.37 73.53 73.53 0 0 1 119.71 57.23z"/><circle class="cls-9" cx="317.08" cy="141.86" r="59.58"/><path class="cls-12" d="M321.43 82.44v8.88a4.34 4.34 0 0 1-8.68 0v-8.88c1.43-.1 2.88-.16 4.34-.16s2.91.06 4.34.16zM284.41 109.19a4.34 4.34 0 0 1-6.13 0l-6.28-6.28a60.32 60.32 0 0 1 6.14-6.14l6.27 6.28a4.33 4.33 0 0 1 0 6.14zM302.08 95.16a4.33 4.33 0 0 1-8.34 1.67l-3.41-8.22a58.77 58.77 0 0 1 8-3.31l3.41 8.21a4.18 4.18 0 0 1 .34 1.65zM288 141.86a4.34 4.34 0 0 1-4.33 4.34h-26c-.11-1.43-.16-2.88-.16-4.34s.05-2.9.16-4.34h26a4.34 4.34 0 0 1 4.33 4.34zM376.67 141.86c0 1.46-.06 2.91-.17 4.34h-26a4.34 4.34 0 0 1 0-8.68h26c.11 1.48.17 2.88.17 4.34zM274.73 122.53a4.19 4.19 0 0 1-.33 1.65 4.34 4.34 0 0 1-5.67 2.35l-8.21-3.41a59.43 59.43 0 0 1 3.32-8l8.22 3.4a4.35 4.35 0 0 1 2.67 4.01zM362.17 102.91l-6.27 6.28a4.35 4.35 0 1 1-6.15-6.14l6.25-6.28a61.26 61.26 0 0 1 6.17 6.14zM343.84 88.61l-3.4 8.22a4.34 4.34 0 1 1-8-3.32l3.4-8.21a58.25 58.25 0 0 1 8 3.31zM373.65 123.12l-8.21 3.41a4.24 4.24 0 0 1-1.66.33 4.34 4.34 0 0 1-1.66-8.35l8.21-3.4a57 57 0 0 1 3.32 8.01z"/><path class="cls-13" d="M336.85 160.23a6.23 6.23 0 0 1 1 2.41 6.27 6.27 0 0 1-11.59 4.23L287 100.08a1.89 1.89 0 0 1 .58-2.54l.32-.17a1.9 1.9 0 0 1 2.26.61l46.47 62z"/><path d="M336.85 160.23a6.23 6.23 0 0 1 1 2.41 4.82 4.82 0 0 1-.55.44 6.27 6.27 0 0 1-8.95-1.75l-40.4-64a1.9 1.9 0 0 1 2.26.61l46.47 62z" style="fill:#fb626e"/><path d="M329.41 144.33a12.57 12.57 0 0 1-14.8 9.85 12.57 12.57 0 1 1 14.8-9.85z" style="fill:#e52e44"/><path class="cls-13" d="M329.41 144.33a12.44 12.44 0 0 1-2.85 5.79 12.57 12.57 0 0 1-13.46-20.18 12.57 12.57 0 0 1 16.31 14.39z"/><path class="cls-3" d="m418.71 279.68-9.93 139.23A10.82 10.82 0 0 1 398 429h-72a10.83 10.83 0 0 1-10.8-10.09l-9.43-139.2a4.43 4.43 0 0 1 4.41-4.73H414.3a4.43 4.43 0 0 1 4.41 4.7z"/><path class="cls-4" d="m418.71 279.68-9.93 139.23A10.82 10.82 0 0 1 398 429h-58.61a10.82 10.82 0 0 1-10.8-10.09l-9.43-139.2a4.42 4.42 0 0 1 4.41-4.73h90.73a4.43 4.43 0 0 1 4.41 4.7z"/><path class="cls-5" d="M409.54 310a6.52 6.52 0 0 1 6.51 7l-2.82 39.58a6.53 6.53 0 0 1-6.51 6.07 6.53 6.53 0 0 1-6.51-7L403 316a6.51 6.51 0 0 1 6.54-6zM405.14 371.73a6.52 6.52 0 0 1 6.51 7l-.63 8.86a6.53 6.53 0 0 1-6.51 6.06 6.52 6.52 0 0 1-6.51-7l.63-8.86a6.53 6.53 0 0 1 6.51-6.06z"/><path class="cls-6" d="m403.77 305.8-7.31 102.39a8 8 0 0 1-7.94 7.39h-53a8 8 0 0 1-7.94-7.42l-6.93-102.37z"/><ellipse class="cls-7" cx="388.73" cy="335.72" rx="16.25" ry="9.21" transform="rotate(-86.52 388.736 335.719)"/><ellipse class="cls-7" cx="386.93" cy="365.43" rx="10.14" ry="5.75" transform="rotate(-86.52 386.929 365.426)"/><path class="cls-9" d="M403.77 305.79h-83.09a11.42 11.42 0 0 1 11.43-11.42 11.2 11.2 0 0 1 4 .73 11.42 11.42 0 0 1 22.75-.25 17.7 17.7 0 0 1 19.8-1.31 8.84 8.84 0 1 1 17.22 3.46 8.85 8.85 0 0 1 7.89 8.79z"/><circle class="cls-9" cx="351.12" cy="305.8" r="4.93"/><circle class="cls-9" cx="371.23" cy="321.89" r="4.93"/><circle class="cls-9" cx="358.09" cy="336.45" r="5.85"/><circle class="cls-9" cx="368.41" cy="359.52" r="7.57"/><circle class="cls-9" cx="334.55" cy="321.13" r="7.57"/><circle class="cls-9" cx="383.55" cy="308.45" r="7.57"/><circle class="cls-9" cx="373.86" cy="385.14" r="4.93"/><circle class="cls-9" cx="337.99" cy="351.95" r="4.93"/><circle class="cls-9" cx="349.7" cy="397.66" r="6.34"/></svg>